<?xml version="1.0" encoding="iso-8859-1"?>
<!-- Generator: Adobe Illustrator 19.0.0, SVG Export Plug-In . SVG Version: 6.00 Build 0)  -->
<svg version="1.1" id="Capa_1" xmlns="http://www.w3.org/2000/svg" xmlns:xlink="http://www.w3.org/1999/xlink" x="0px" y="0px"
	 viewBox="0 0 512 512" style="enable-background:new 0 0 512 512;" xml:space="preserve">
<g>
	<path style="fill:#A8503C;" d="M125.165,312.66l-37.214,18.493c0,0-0.846,24.05-8.966,51.266
		c-7.787,26.099,12.46,52.101,39.666,50.86c4.418-0.202,9.106-0.556,14.068-1.095l74.86-43.977L125.165,312.66z"/>
	<path style="fill:#A8503C;" d="M386.831,312.66l37.214,18.493c0,0,0.846,24.05,8.966,51.266
		c7.787,26.099-12.46,52.101-39.666,50.86c-4.418-0.202-9.106-0.556-14.068-1.095l-74.86-43.977L386.831,312.66z"/>
</g>
<path style="fill:#ED6883;" d="M185.473,396.598c-51.644,0-93.506,41.862-93.506,93.496V512h52.308l0,0l7.726-9.836l7.726,9.836l0,0
	h40.468l83.858-115.402H185.473z"/>
<path style="fill:#FA9EB0;" d="M326.524,396.598h-42.471l-42.685,34.943l-41.173,33.452V512H352.27l0,0l7.726-7.262l7.726,7.262l0,0
	h52.308v-21.906C420.03,438.461,378.168,396.598,326.524,396.598z"/>
<polygon style="fill:#A8503C;" points="424.046,228.746 255.998,213.338 87.951,228.746 87.951,299.855 424.046,299.855 "/>
<circle style="fill:#E3B098;" cx="406.838" cy="300.287" r="35.346"/>
<ellipse style="fill:#FBC4AC;" cx="255.998" cy="289.12" rx="153.878" ry="143.061"/>
<path style="fill:#E3B098;" d="M133.022,289.123c0-74.161,60.699-135.139,138.43-142.345c-5.083-0.471-10.237-0.715-15.453-0.715
	c-76.128,0-139.335,51.397-151.687,118.9c-19.126,0.451-34.495,16.086-34.495,35.321c0,19.519,15.824,35.342,35.342,35.342
	c1.933,0,3.618-0.161,5.102-0.459c20.618,56.421,78.076,97.016,145.737,97.016c5.216,0,10.37-0.244,15.453-0.716
	C193.721,424.263,133.022,363.285,133.022,289.123z"/>
<g>
	<path style="fill:#A8503C;" d="M112.288,190.068l-7.977,74.895c0,0,109.965,3.488,151.687-36.218v-38.677H112.288z"/>
	<path style="fill:#A8503C;" d="M399.709,190.068h-143.71v38.677c41.722,39.707,151.693,36.196,151.693,36.196L399.709,190.068z"/>
</g>
<path style="fill:#F3F5E6;" d="M376.249,0c-26.772,0-49.8,15.967-60.125,38.889C305.798,15.967,282.771,0,255.998,0
	s-49.8,15.967-60.125,38.889C185.547,15.967,162.519,0,135.746,0c-36.412,0-65.93,29.518-65.93,65.93
	c0,17.6,6.896,33.588,18.133,45.411l0.001,0.001v86.59l168.047,15.406l168.047-15.406v-86.59l0.001-0.001
	c11.237-11.823,18.133-27.812,18.133-45.411C442.179,29.518,412.662,0,376.249,0z"/>
<rect x="87.955" y="197.929" style="fill:#FA9EB0;" width="336.097" height="30.814"/>
<g>
	<path style="fill:#D7D9CC;" d="M255.998,175.266c-4.267,0-7.726-3.459-7.726-7.726V81.298c0-4.267,3.459-7.726,7.726-7.726
		c4.267,0,7.726,3.459,7.726,7.726v86.242C263.725,171.806,260.265,175.266,255.998,175.266z"/>
	<path style="fill:#D7D9CC;" d="M178.55,175.266c-4.267,0-7.726-3.459-7.726-7.726V81.298c0-4.267,3.459-7.726,7.726-7.726
		c4.267,0,7.726,3.459,7.726,7.726v86.242C186.277,171.806,182.817,175.266,178.55,175.266z"/>
	<path style="fill:#D7D9CC;" d="M333.446,175.266c-4.267,0-7.726-3.459-7.726-7.726V81.298c0-4.267,3.459-7.726,7.726-7.726
		c4.267,0,7.726,3.459,7.726,7.726v86.242C341.173,171.806,337.714,175.266,333.446,175.266z"/>
</g>
<g>
	<path style="fill:#ED6883;" d="M352.27,512v-46.164c0-4.267,3.459-7.726,7.726-7.726c4.267,0,7.726,3.459,7.726,7.726V512H352.27z"
		/>
	<circle style="fill:#ED6883;" cx="236.044" cy="478.519" r="9.469"/>
	<circle style="fill:#ED6883;" cx="315.162" cy="478.519" r="9.469"/>
</g>
<path style="fill:#3B484A;" d="M340.817,306.802c-4.267,0-7.726-3.459-7.726-7.726v-16.492c0-4.267,3.459-7.726,7.726-7.726
	s7.726,3.459,7.726,7.726v16.492C348.544,303.343,345.084,306.802,340.817,306.802z"/>
<path style="fill:#F98084;" d="M352.048,331.042h-22.462c-4.267,0-7.726-3.459-7.726-7.726s3.459-7.726,7.726-7.726h22.462
	c4.267,0,7.726,3.459,7.726,7.726S356.315,331.042,352.048,331.042z"/>
<path style="fill:#3B484A;" d="M171.18,306.802c-4.267,0-7.726-3.459-7.726-7.726v-16.492c0-4.267,3.459-7.726,7.726-7.726
	c4.267,0,7.726,3.459,7.726,7.726v16.492C178.906,303.343,175.447,306.802,171.18,306.802z"/>
<path style="fill:#F98084;" d="M182.412,331.042h-22.463c-4.267,0-7.726-3.459-7.726-7.726s3.459-7.726,7.726-7.726h22.463
	c4.267,0,7.726,3.459,7.726,7.726S186.679,331.042,182.412,331.042z"/>
<path style="fill:#3B484A;" d="M255.998,330.111c-8.142,0-15.792-3.41-20.988-9.354c-2.808-3.213-2.481-8.094,0.732-10.902
	c3.213-2.808,8.094-2.48,10.902,0.732c2.261,2.587,5.67,4.071,9.353,4.071c3.683,0,7.093-1.483,9.354-4.071
	c2.808-3.212,7.69-3.541,10.902-0.732c3.213,2.808,3.541,7.689,0.732,10.902C271.79,326.701,264.141,330.111,255.998,330.111z"/>
<path style="fill:#D16F83;" d="M159.727,512v-46.164c0-4.267-3.459-7.726-7.726-7.726s-7.726,3.459-7.726,7.726V512H159.727z"/>
<g>
</g>
<g>
</g>
<g>
</g>
<g>
</g>
<g>
</g>
<g>
</g>
<g>
</g>
<g>
</g>
<g>
</g>
<g>
</g>
<g>
</g>
<g>
</g>
<g>
</g>
<g>
</g>
<g>
</g>
</svg>
